HIERARCHY
ROOT RootJoint
{
    OFFSET   0.000000   0.000000   0.000000
    CHANNELS 6 Xposition Yposition Zposition Xrotation Yrotation Zrotation
    JOINT pelvis_lowerback
    {
        OFFSET   0.000000   0.093605   0.000000
        CHANNELS 3 Xrotation Yrotation Zrotation
        JOINT lowerback_torso
        {
            OFFSET   0.000000   0.100000   0.000000
            CHANNELS 3 Xrotation Yrotation Zrotation
            JOINT torso_head
            {
                OFFSET   0.000000   0.282350   0.000000
                CHANNELS 3 Xrotation Yrotation Zrotation
                End Site
                {
                    OFFSET   0.000000   0.192650   0.000000
                }
            }
            JOINT rTorso_Clavicle
            {
                OFFSET  -0.001000   0.157500   0.000000
                CHANNELS 3 Xrotation Yrotation Zrotation
                JOINT rShoulder
                {
                    OFFSET  -0.117647   0.000000   0.000000
                    CHANNELS 3 Xrotation Yrotation Zrotation
                    JOINT rElbow
                    {
                        OFFSET  -0.245000   0.000000   0.000000
                        CHANNELS 3 Xrotation Yrotation Zrotation
                        JOINT rWrist
                        {
                            OFFSET  -0.240000   0.000000   0.000000
                            CHANNELS 3 Xrotation Yrotation Zrotation
                            End Site
                            {
                                OFFSET  -0.116353  -0.002500   0.000000
                            }
                        }
                    }
                }
            }
            JOINT lTorso_Clavicle
            {
                OFFSET   0.001000   0.157500   0.000000
                CHANNELS 3 Xrotation Yrotation Zrotation
                JOINT lShoulder
                {
                    OFFSET   0.117647   0.000000   0.000000
                    CHANNELS 3 Xrotation Yrotation Zrotation
                    JOINT lElbow
                    {
                        OFFSET   0.245000   0.000000   0.000000
                        CHANNELS 3 Xrotation Yrotation Zrotation
                        JOINT lWrist
                        {
                            OFFSET   0.240000   0.000000   0.000000
                            CHANNELS 3 Xrotation Yrotation Zrotation
                            End Site
                            {
                                OFFSET   0.116353  -0.002500   0.000000
                            }
                        }
                    }
                }
            }
        }
    }
    JOINT rHip
    {
        OFFSET  -0.100000  -0.051395   0.000000
        CHANNELS 3 Xrotation Yrotation Zrotation
        JOINT rKnee
        {
            OFFSET   0.000000  -0.410000   0.000000
            CHANNELS 3 Xrotation Yrotation Zrotation
            JOINT rAnkle
            {
                OFFSET   0.000000  -0.390000   0.000000
                CHANNELS 3 Xrotation Yrotation Zrotation
                JOINT rToeJoint
                {
                    OFFSET   0.000000  -0.050000   0.130000
                    CHANNELS 3 Xrotation Yrotation Zrotation
                    End Site
                    {
                        OFFSET  -0.010000   0.002000   0.060000
                    }
                }
            }
        }
    }
    JOINT lHip
    {
        OFFSET   0.100000  -0.051395   0.000000
        CHANNELS 3 Xrotation Yrotation Zrotation
        JOINT lKnee
        {
            OFFSET   0.000000  -0.410000   0.000000
            CHANNELS 3 Xrotation Yrotation Zrotation
            JOINT lAnkle
            {
                OFFSET   0.000000  -0.390000   0.000000
                CHANNELS 3 Xrotation Yrotation Zrotation
                JOINT lToeJoint
                {
                    OFFSET   0.000000  -0.050000   0.130000
                    CHANNELS 3 Xrotation Yrotation Zrotation
                    End Site
                    {
                        OFFSET   0.010000   0.002000   0.060000
                    }
                }
            }
        }
    }
}
MOTION
Frames: 10
Frame Time:   0.008333
 -2.396051   0.886716   4.890306  -4.781079   6.483525   3.563466   9.408253  -8.263707  -3.263215   4.121914  -6.811950  -0.067179   1.906956  -6.980502   1.400086   3.531615  -6.374567   6.315486  14.661728  -1.270730  50.935497  -0.001868  10.305286  -0.005032   5.319015   3.554074   3.924340   0.738802  -3.965766  -7.848638  -3.668180 -19.268827 -39.082637   0.001036 -29.057023   0.005472   7.543176  -3.683971   2.256067 -21.999732  -9.700630  -5.047711  22.962779  -0.001944  -0.003109  -0.458319 -16.129263  -0.382568   0.208310   0.001636  -0.002130  15.777668   4.078874   0.258112  14.174969  -0.003823  -0.001267 -16.562126  -2.235621  -3.347467 -13.039223  -0.001329   0.008497
 -2.397042   0.886862   4.896290  -4.690901   6.131455   3.450883   9.406007  -8.371842  -3.099161   4.095078  -7.016615   0.089181   1.966390  -7.085041   1.438050   3.527008  -6.522006   6.367188  14.808305  -1.580755  50.687484  -0.001775  10.145968  -0.004952   5.303823   3.668558   3.839928   0.716346  -4.193726  -7.924534  -3.767114 -19.761815 -39.091042   0.001967 -29.351211   0.007284   7.612682  -3.416783   2.415129 -21.926252  -9.532551  -4.745163  23.425332  -0.001959  -0.002817  -0.525077 -15.986431  -0.677276   0.540091   0.002298  -0.001539  15.526414   4.359783   0.485812  15.291226  -0.005295  -0.001262 -15.542572  -2.404547  -3.782882 -17.169500  -0.013606   0.008769
 -2.397856   0.887305   4.902482  -4.647482   5.723921   3.433268   9.396506  -8.480949  -2.972281   4.096430  -7.238473   0.218663   2.033590  -7.176135   1.476876   3.548883  -6.685708   6.422919  14.966062  -1.890272  50.448506  -0.001803   9.985215  -0.004918   5.292886   3.734420   3.721618   0.690163  -4.433759  -8.040857  -3.873537 -20.248649 -39.136670   0.002872 -29.641121   0.008810   7.685626  -3.240190   2.522866 -21.762906  -9.306698  -4.524413  23.815987  -0.001859  -0.002629  -0.626236 -15.833087  -0.983364   0.836310   0.002748  -0.001133  15.292476   4.646265   0.598859  16.486521  -0.006498  -0.001459 -14.772519  -2.573478  -4.138572 -19.253075  -0.016205   0.007859
 -2.398633   0.887708   4.908790  -4.596129   5.221398   3.396726   9.369572  -8.587949  -2.808430   4.097259  -7.458117   0.351965   2.096328  -7.259441   1.516345   3.584782  -6.849771   6.448532  15.125664  -2.191164  50.215717  -0.001875   9.829451  -0.004921   5.285100   3.766844   3.604661   0.665662  -4.668183  -8.161853  -3.979615 -20.715827 -39.202341   0.003636 -29.920161   0.010110   7.755985  -3.125296   2.588803 -21.590677  -9.081497  -4.276237  24.184622  -0.001801  -0.002732  -0.725398 -15.685754  -1.275424   1.103219   0.002950  -0.001030  15.086076   4.875153   0.711858  17.679136  -0.008012  -0.003063 -13.842340  -2.790475  -4.355803 -22.185343  -0.018661   0.012437
 -2.399390   0.888038   4.915157  -4.532479   4.616462   3.349399   9.335129  -8.696607  -2.629548   4.094547  -7.672568   0.491130   2.153551  -7.336792   1.557576   3.625712  -7.007515   6.458603  15.279853  -2.478491  49.989604  -0.001975   9.680735  -0.004938   5.278952   3.777194   3.480891   0.639336  -4.893923  -8.277696  -4.083554 -21.158012 -39.269993   0.004242 -30.184185   0.011175   7.824026  -3.041211   2.640690 -21.431041  -8.870551  -4.016198  24.547526  -0.001804  -0.003158  -0.811107 -15.547404  -1.546638   1.346510   0.002965  -0.001189  14.911213   5.078894   0.807946  18.820508  -0.009576  -0.005389 -12.923791  -3.002927  -4.566979 -24.784801  -0.021043   0.017504
 -2.400142   0.888303   4.921564  -4.455437   3.906678   3.295132   9.296739  -8.805689  -2.444784   4.089543  -7.879818   0.634164   2.206462  -7.408943   1.599037   3.667881  -7.157226   6.461931  15.426026  -2.750266  49.773757  -0.002093   9.540052  -0.004951   5.273733   3.774621   3.352426   0.610467  -5.109207  -8.384397  -4.184568 -21.574131 -39.333561   0.004709 -30.432460   0.012019   7.889738  -2.972868   2.692007 -21.286232  -8.675845  -3.749499  24.903725  -0.001859  -0.003844  -0.884074 -15.418345  -1.797458   1.569655   0.002846  -0.001529  14.767619   5.263209   0.879603  19.911910  -0.011152  -0.008154 -12.042317  -3.209769  -4.766697 -26.930180  -0.022683   0.021988
 -2.400901   0.888635   4.927872  -4.352241   3.129580   3.217091   9.267118  -8.926253  -2.238189   4.082914  -8.087060   0.790538   2.254485  -7.476789   1.640775   3.705648  -7.295104   6.470508  15.560107  -3.003284  49.572071  -0.002221   9.408497  -0.004919   5.268418   3.766599   3.222547   0.573667  -5.322320  -8.486221  -4.286708 -21.969230 -39.392478   0.005094 -30.666184   0.012682   7.953343  -2.915896   2.752751 -21.145911  -8.447667  -3.431979  25.238481  -0.001928  -0.004367  -1.166613 -15.241233  -2.122754   0.129169  -0.000834   0.002182  14.621666   5.426828   0.948842  20.953255  -0.012601  -0.010923 -11.187766  -3.409787  -4.955633 -28.580056  -0.023127   0.024705
 -2.401520   0.889314   4.933758  -4.233180   2.327710   3.139185   9.292517  -9.042017  -2.002183   4.085032  -8.316648   0.994328   2.290678  -7.472716   1.632811   3.691097  -7.485674   6.458821  15.550608  -3.404243  49.310252  -0.002025   9.343316  -0.004552   5.244500   3.778458   3.143245   0.554064  -5.606858  -8.549278  -4.338835 -22.490888 -39.480506   0.005962 -30.919171   0.014224   8.053088  -2.716831   2.920947 -20.918575  -8.097965  -3.060896  25.336713  -0.001660  -0.003783  -1.481746 -14.895530  -2.625371  -0.099204  -0.001464   0.001729  13.997162   5.758861   1.065741  22.779830  -0.015963  -0.013996 -10.133507  -3.724950  -5.350315 -30.715753  -0.028508   0.024835
 -2.401947   0.890138   4.939645  -4.144755   1.429407   3.091574   9.329909  -9.154492  -1.760223   4.114785  -8.544343   1.185015   2.334130  -7.464458   1.624968   3.680115  -7.665159   6.410229  15.541266  -3.784064  49.038651  -0.001852   9.283459  -0.004214   5.213875   3.808452   3.023995   0.527896  -5.898026  -8.614929  -4.400488 -23.000864 -39.583072   0.006733 -31.166534   0.015568   8.155523  -2.565435   3.039972 -20.625720  -7.690468  -2.714706  25.352517  -0.001344  -0.003081  -1.750745 -14.508871  -3.081451  -0.292956  -0.001786   0.001382  13.364022   6.085445   1.123774  24.690033  -0.019408  -0.017953  -9.060240  -4.032518  -5.725758 -32.002740  -0.029102   0.023184
 -2.402260   0.891006   4.945572  -4.061369   0.474778   3.056145   9.360454  -9.281487  -1.509543   4.152412  -8.776660   1.371059   2.378411  -7.456882   1.621300   3.679142  -7.838433   6.337835  15.538457  -4.146506  48.766477  -0.001723   9.224440  -0.003941   5.184769   3.827317   2.878370   0.496563  -6.184139  -8.680447  -4.467441 -23.489104 -39.688914   0.007317 -31.403678   0.016588   8.255857  -2.457136   3.133072 -20.316017  -7.251640  -2.385355  25.339385  -0.001060  -0.002417  -2.003403 -14.087667  -3.504607  -0.459948  -0.001923   0.001103  12.764866   6.385623   1.146665  26.543344  -0.022551  -0.021937  -7.992053  -4.337766  -6.081385 -32.530627  -0.025918   0.020092
